<svg id="SvgjsSvg1014" width="288" height="288" xmlns="http://www.w3.org/2000/svg" version="1.1" xmlns:xlink="http://www.w3.org/1999/xlink" xmlns:svgjs="http://svgjs.com/svgjs"><defs id="SvgjsDefs1015"></defs><g id="SvgjsG1016"><svg xmlns="http://www.w3.org/2000/svg" viewBox="0 0 25 25" width="288" height="288"><g fill="#ebf3f7" transform="translate(4.499 -1031.861)" class="colorfff svgShape"><circle cx="8.001" cy="1044.361" r="12.5" fill="#258cbf" class="color3a6c87 svgShape"></circle><path fill="#25a2d1" style="line-height:normal;text-indent:0;text-align:start;text-decoration-line:none;text-decoration-style:solid;text-decoration-color:#000;text-transform:none;block-progression:tb;isolation:auto;mix-blend-mode:normal" d="M11.975 24.975A12.5 12.5 0 0 0 12.5 25a12.5 12.5 0 0 0 .885-.031 12.5 12.5 0 0 0 1.24-.15 12.5 12.5 0 0 0 1.219-.274 12.5 12.5 0 0 0 1.185-.395 12.5 12.5 0 0 0 1.14-.51 12.5 12.5 0 0 0 1.085-.622 12.5 12.5 0 0 0 1.016-.727 12.5 12.5 0 0 0 .939-.824 12.5 12.5 0 0 0 .852-.914 12.5 12.5 0 0 0 .755-.994 12.5 12.5 0 0 0 .655-1.067 12.5 12.5 0 0 0 .543-1.125 12.5 12.5 0 0 0 .427-1.174 12.5 12.5 0 0 0 .309-1.21 12.5 12.5 0 0 0 .188-1.235A12.5 12.5 0 0 0 25 12.5a12.5 12.5 0 0 0-.018-.518L20 7H5v11l6.975 6.975z" color="#000" font-family="sans-serif" font-weight="400" transform="translate(-4.499 1031.861)" class="color2f4b6c svgShape"></path><path d="M0 2v11h15V2H0Zm1 1h2v9H1V3Zm3 0h10v9H4V3Zm2 1v3h6V4H6Zm1 1h4v1H7V5z" color="#000" font-family="sans-serif" font-weight="400" overflow="visible" transform="translate(.501 1036.861)" style="line-height:normal;text-indent:0;text-align:start;text-decoration-line:none;text-decoration-style:solid;text-decoration-color:#000;text-transform:none;block-progression:tb;isolation:auto;mix-blend-mode:normal" fill="#e9eef1" class="color000 svgShape"></path></g></svg></g></svg>